<mxfile host="app.diagrams.net" modified="2023-05-06T13:44:34.996Z" agent="Mozilla/5.0 (Windows NT 10.0; Win64; x64) AppleWebKit/537.36 (KHTML, like Gecko) Chrome/113.0.0.0 Safari/537.36" version="21.2.1" etag="xydpNPs9iu4Wxxud2sP6" type="github">
  <diagram name="Page-1" id="1D4Jy_Kzfc-_KQnUi5Pj">
    <mxGraphModel>
      <root>
        <mxCell id="0" />
        <mxCell id="1" parent="0" />
      </root>
    </mxGraphModel>
  </diagram>
</mxfile>
